<svg fill="#1976D2" viewBox="0 0 458 145" xmlns="http://www.w3.org/2000/svg"><path fill-rule="evenodd" clip-rule="evenodd" d="M119.946 127.168C91.6641 151.984 48.5846 150.898 21.598 123.912C-6.51976 95.7939 -6.51976 50.2061 21.598 22.0883C49.7157 -6.02943 95.3036 -6.02944 123.421 22.0883C126.546 25.2125 126.546 30.2778 123.421 33.402C120.297 36.5262 115.232 36.5262 112.108 33.402C101.766 23.0609 88.3871 17.6096 74.8429 17.0483L137.928 126.315C140.137 130.142 138.826 135.034 135 137.244C131.174 139.453 126.281 138.142 124.072 134.315L119.946 127.168ZM32.9117 112.598C11.0423 90.7286 11.0423 55.2714 32.9117 33.402C40.0144 26.2993 48.5503 21.5034 57.5886 19.0143C57.7252 19.3489 57.886 19.6782 58.0718 20C58.2576 20.3218 111.742 112.96 111.742 112.96C89.8452 134.467 54.6597 134.346 32.9117 112.598Z"/><path fill-rule="evenodd" clip-rule="evenodd" d="M171.251 117.573C193.17 133.793 224.244 131.971 244.108 112.108C247.232 108.983 252.297 108.983 255.421 112.108C258.546 115.232 258.546 120.297 255.421 123.421C227.304 151.539 181.716 151.539 153.598 123.421C125.48 95.3036 125.48 49.7157 153.598 21.598C181.716 -6.51976 227.304 -6.51976 255.421 21.598C257.752 23.9286 258.344 27.3395 257.197 30.2189C256.835 31.4777 256.158 32.6651 255.167 33.6569L171.251 117.573ZM159.867 106.329C143.196 84.3814 144.878 52.9453 164.912 32.9117C184.945 12.8781 216.381 11.1964 238.329 27.8667L159.867 106.329Z"/><path d="M269 137C269 141.418 272.582 145 277 145C281.418 145 285 141.418 285 137L285 31.6975C306.99 12.0691 340.748 12.8071 361.853 33.9117C364.977 37.0359 370.042 37.0359 373.167 33.9117C376.291 30.7875 376.291 25.7222 373.167 22.598C349.25 -1.31864 312.694 -4.89207 285 11.8777V9C285 4.58173 281.418 1 277 1C272.582 1 269 4.58173 269 9V137Z"/><path fill-rule="evenodd" clip-rule="evenodd" d="M314 73C314 33.2355 346.235 1 386 1C425.765 1 458 33.2355 458 73C458 112.765 425.765 145 386 145C346.235 145 314 112.765 314 73ZM386 17C355.072 17 330 42.0721 330 73C330 103.928 355.072 129 386 129C416.928 129 442 103.928 442 73C442 42.0721 416.928 17 386 17Z"/></svg>